<svg width="512px" height="512px" viewBox="0 0 512 512" version="1.1" xmlns="http://www.w3.org/2000/svg" xmlns:xlink="http://www.w3.org/1999/xlink">
    <defs>
        <path d="M14.2,105.245848 C14.2,116.760505 16.3868,127.944823 20.7604,138.798802 C25.1434667,149.671658 31.9689333,159.70923 41.2368,168.911516 L55.7208,183.337871 L55.7208,147.562211 C55.7208,145.551865 56.3976667,143.871858 57.7514,142.522189 C59.1051333,141.17252 60.7949333,140.492967 62.8208,140.483528 C64.8372,140.483528 66.5222667,141.163082 67.876,142.522189 C69.2297333,143.871858 69.9066,145.551865 69.9066,147.562211 L69.9066,196.560849 C69.9066,199.807605 68.8084667,202.525819 66.6122,204.715491 C64.4159333,206.905164 61.6895333,208 58.433,208 L9.2868,208 C7.2704,208 5.58533333,207.320447 4.2316,205.96134 C2.8684,204.602233 2.1868,202.917506 2.1868,200.90716 C2.1868,198.906253 2.8684,197.226246 4.2316,195.867139 C5.58533333,194.51747 7.2704,193.842635 9.2868,193.842635 L46.15,193.842635 L31.1832,179.090662 C20.1545333,168.425447 12.2025333,156.69843 7.3272,143.909611 C2.4424,131.13023 0,118.247028 0,105.260005 C0,84.7129504 5.31553333,65.9119702 15.9466,48.8570651 C26.5776667,31.8021599 40.8439333,18.6216535 58.7454,9.31554588 C60.6008667,8.3339686 62.5415333,8.12160813 64.5674,8.67846447 C66.6027333,9.24475905 67.9375333,10.4764498 68.5718,12.3735366 C69.2060667,14.1668028 69.154,16.0072602 68.4156,17.8949088 C67.6772,19.7825574 66.3613333,21.2313277 64.468,22.2412197 C49.1036,30.3392322 36.8868667,41.7595063 27.8178,56.5020419 C18.7392667,71.2540158 14.2,87.5019512 14.2,105.245848 M198.8,102.754152 C198.8,91.2394954 196.6132,80.0551774 192.2396,69.2011979 C187.856533,58.328342 181.031067,48.2907705 171.7632,39.0884835 L157.2792,24.662129 L157.2792,60.4377893 C157.2792,62.448135 156.602333,64.1281423 155.2486,65.4778111 C153.894867,66.8274798 152.205067,67.5070333 150.1792,67.5164715 C148.1628,67.5164715 146.477733,66.8369181 145.124,65.4778111 C143.770267,64.1281423 143.0934,62.448135 143.0934,60.4377893 L143.0934,11.4391506 C143.0934,8.19239495 144.191533,5.47418096 146.3878,3.28450858 C148.584067,1.09483619 151.310467,0 154.567,0 L203.7132,0 C205.7296,0 207.414667,0.679553499 208.7684,2.0386605 C210.1316,3.39776749 210.8132,5.08249387 210.8132,7.09283964 C210.8132,9.09374716 210.1316,10.7737544 208.7684,12.1328614 C207.414667,13.4825302 205.7296,14.1573646 203.7132,14.1573646 L166.85,14.1573646 L181.8168,28.9093384 C192.656133,39.7161267 200.5608,51.457301 205.5308,64.1328614 C210.510267,76.8084218 213,89.6916236 213,102.782467 C213,123.301207 207.7318,142.045558 197.1954,159.015519 C186.649533,175.976041 172.4306,189.109357 154.5386,198.415464 C152.683133,199.397041 150.742467,199.651874 148.7166,199.179962 C146.681267,198.70805 145.341733,197.52355 144.698,195.626463 C144.063733,193.833197 144.125267,191.988021 144.8826,190.090934 C145.639933,188.184409 146.8564,186.740358 148.532,185.75878 C163.8964,177.660768 176.113133,166.240494 185.1822,151.497958 C194.260733,136.745984 198.8,120.498049 198.8,102.754152" id="path-gkrbooimem-1"></path>
        <filter x="-8.5%" y="-8.7%" width="116.9%" height="117.3%" filterUnits="objectBoundingBox" id="filter-gkrbooimem-2">
            <feMorphology radius="6" operator="dilate" in="SourceAlpha" result="shadowSpreadOuter1"></feMorphology>
            <feOffset dx="0" dy="0" in="shadowSpreadOuter1" result="shadowOffsetOuter1"></feOffset>
            <feColorMatrix values="0 0 0 0 1   0 0 0 0 1   0 0 0 0 1  0 0 0 1 0" type="matrix" in="shadowOffsetOuter1"></feColorMatrix>
        </filter>
    </defs>
    <g stroke="none" stroke-width="1" fill="none" fill-rule="evenodd">
        <g >
            <rect stroke="#979797" x="0.5" y="0.5" width="511" height="511"></rect>
            <g transform="translate(33.000000, 118.000000)" fill-rule="nonzero">
                <path d="M276.635588,241.216456 L186.201961,197.895644 C177.293999,193.634581 173.44576,182.839886 177.792845,173.891653 L221.263698,83.7701604 C225.53952,74.8929448 236.371601,71.0579877 245.350827,75.3900689 C257.608182,81.28454 264.663288,84.6223731 264.663288,84.6223731 L264.592024,7.07101772 L276.493061,7 L276.564325,90.1617556 C276.564325,90.1617556 317.469685,107.348045 335.784454,118.639863 C338.421211,120.273271 343.053351,123.469069 344.97747,128.866416 C346.474008,133.198497 346.402744,138.169738 344.264833,142.572836 L300.79398,232.694329 C296.375631,241.71358 285.54355,245.548537 276.635588,241.216456 Z" id="teabag" fill="#FFFFFF"></path>
                <g fill="#609926">
                    <path d="M437.770062,4.77227276 C434.861204,1.86278305 430.959078,1.93374621 430.959078,1.93374621 C430.959078,1.93374621 347.808321,6.61731501 304.74304,7.6107993 C295.30699,7.82368879 285.941888,8.03657829 276.647733,8.10754145 C276.647733,35.8541384 276.647733,63.6007354 276.647733,91.2763693 C272.745607,89.431327 268.772533,87.5153216 264.870407,85.6702793 C264.870407,59.8396878 264.79946,8.17850461 264.79946,8.17850461 C244.224614,8.46235727 201.514071,6.61731501 201.514071,6.61731501 C201.514071,6.61731501 101.19396,1.57893039 90.2680073,0.5854461 C83.3151283,0.159667118 74.3047647,-0.904780337 62.5983868,1.64989356 C56.425933,2.9272305 38.8308923,6.90116767 24.4285001,20.7389846 C-7.49798509,49.1952132 0.661005567,94.4697116 1.654274,101.282175 C2.86038566,109.584865 6.54966839,132.647894 24.1447091,152.730469 C56.6387763,192.540804 126.593253,191.618283 126.593253,191.618283 C126.593253,191.618283 135.17793,212.126637 148.303263,231.002839 C166.040199,254.491646 184.273769,272.800142 202.010705,275 C246.707785,275 336.030995,274.929037 336.030995,274.929037 C336.030995,274.929037 344.544725,275 356.109207,267.619831 C366.041892,261.587962 374.91036,251.014451 374.91036,251.014451 C374.91036,251.014451 384.062619,241.221534 396.833213,218.868138 C400.735339,211.984711 403.998935,205.314173 406.836845,198.998452 C406.836845,198.998452 446,115.900587 446,35.0025805 C445.219575,10.520289 439.189016,6.19153603 437.770062,4.77227276 Z M85.0888219,149.60809 C66.713356,143.576221 58.9091041,136.337978 58.9091041,136.337978 C58.9091041,136.337978 45.3580848,126.828914 38.5471013,108.094639 C26.8407234,76.7289207 37.5538329,57.5688665 37.5538329,57.5688665 C37.5538329,57.5688665 43.5134435,41.6021547 64.8687147,36.2799174 C74.6595034,33.6542804 86.8625156,34.0800594 86.8625156,34.0800594 C86.8625156,34.0800594 91.8998054,76.2321786 98.0013115,100.92736 C103.109549,121.648603 115.596352,156.065738 115.596352,156.065738 C115.596352,156.065738 97.0789908,153.86588 85.0888219,149.60809 Z M298.1449,225.964454 C298.1449,225.964454 293.817087,236.254113 284.239142,236.892781 C280.124173,237.176634 276.931524,236.041223 276.931524,236.041223 C276.931524,236.041223 276.718681,235.97026 273.171294,234.550997 L193.07129,195.521257 C193.07129,195.521257 185.337985,191.476356 183.989978,184.451003 C182.429128,178.702987 185.905567,171.606671 185.905567,171.606671 L224.430193,92.1988904 C224.430193,92.1988904 227.835685,85.3154635 233.085818,82.9736791 C233.511504,82.7607896 234.717616,82.2640475 236.278466,81.9092317 C242.025234,80.4190052 249.04906,83.8962002 249.04906,83.8962002 L327.588214,122.003419 C327.588214,122.003419 336.52763,126.048319 338.443219,133.499452 C339.791226,138.750726 338.08848,143.434295 337.166159,145.705116 C332.696451,156.633443 298.1449,225.964454 298.1449,225.964454 Z" id="形状"></path>
                    <path d="M227.835685,168.200439 C222.01797,168.271402 216.909732,172.316302 215.561725,177.993355 C214.213718,183.670408 216.98068,189.560351 222.01797,192.185988 C227.480946,195.024515 234.433825,193.463325 238.123108,188.353977 C241.741443,183.315593 241.173861,176.361203 236.846048,171.961486 L253.873507,137.118573 C254.937723,137.189536 256.498574,137.260499 258.272267,136.763757 C261.181125,136.125089 263.309557,134.209083 263.309557,134.209083 C266.289362,135.48642 269.411063,136.905684 272.674659,138.537836 C276.080151,140.240952 279.2728,142.015031 282.181657,143.718147 C282.820187,144.072963 283.458717,144.498742 284.168194,145.066447 C285.303358,145.988968 286.580417,147.266305 287.502738,148.969421 C288.850745,152.872395 286.154731,159.542933 286.154731,159.542933 C284.522933,164.936133 273.100346,188.353977 273.100346,188.353977 C267.353578,188.212051 262.245341,191.902135 260.542595,197.224373 C258.697954,202.972389 261.32302,209.501 266.856944,212.339526 C272.390868,215.178053 279.201852,213.5459 282.820187,208.578479 C286.367574,203.752984 286.083783,197.011483 282.039762,192.540804 C283.387769,189.915167 284.664828,187.28953 286.012835,184.521966 C289.560223,177.141797 295.590781,162.949165 295.590781,162.949165 C296.229311,161.742791 299.634802,155.639959 297.50637,147.834011 C295.732676,139.74421 288.566954,135.983162 288.566954,135.983162 C279.911329,130.377072 267.850213,125.196761 267.850213,125.196761 C267.850213,125.196761 267.850213,122.287272 267.069787,120.158377 C266.289362,117.958519 265.083251,116.539256 264.302825,115.687698 C267.637369,108.804271 270.971913,101.991807 274.306457,95.1083801 C271.3976,93.6891168 268.55969,92.2698536 265.650833,90.7796271 C262.245341,97.7340172 258.768901,104.75937 255.36341,111.71376 C250.609911,111.642797 246.21115,114.197471 243.940823,118.384298 C241.528599,122.854977 242.025234,128.390104 245.28883,132.435004 C239.471115,144.356816 233.6534,156.278627 227.835685,168.200439 Z" id="路径"></path>
                </g>
            </g>
            <g transform="translate(274.000000, 279.000000)" fill-rule="nonzero">
                <g >
                    <use fill="black" fill-opacity="1" filter="url(#filter-gkrbooimem-2)" xlink:href="#path-gkrbooimem-1"></use>
                    <use fill="#609926" xlink:href="#path-gkrbooimem-1"></use>
                </g>
            </g>
        </g>
    </g>
</svg>
